<svg aria-hidden="true" style="position: absolute; width: 0; height: 0; overflow: hidden;" version="1.1" xmlns="http://www.w3.org/2000/svg" xmlns:xlink="http://www.w3.org/1999/xlink">
<defs>
<symbol id="icon-phone" viewBox="0 0 32 32">
<path fill="#fff" style="fill: var(--color1, #fff)" d="M31.306 24.411c-0.999-0.838-6.857-4.547-7.831-4.377-0.457 0.081-0.807 0.471-1.743 1.587-0.433 0.55-0.908 1.064-1.422 1.539-0.941-0.227-1.852-0.565-2.713-1.006-3.379-1.645-6.109-4.376-7.753-7.755-0.441-0.862-0.778-1.772-1.006-2.713 0.475-0.514 0.99-0.989 1.539-1.422 1.115-0.936 1.506-1.283 1.587-1.743 0.17-0.976-3.543-6.832-4.377-7.831-0.35-0.414-0.667-0.691-1.074-0.691-1.179 0-6.514 6.597-6.514 7.451 0 0.070 0.114 6.937 8.787 15.761 8.824 8.673 15.691 8.787 15.761 8.787 0.855 0 7.451-5.335 7.451-6.514 0-0.407-0.278-0.725-0.694-1.074v0z"></path>
<path fill="#fff" style="fill: var(--color1, #fff)" d="M23.999 14.857h2.286c-0.003-2.424-0.967-4.748-2.681-6.462s-4.038-2.678-6.462-2.681v2.286c1.818 0.002 3.561 0.725 4.847 2.010s2.009 3.029 2.010 4.847v0z"></path>
<path fill="#fff" style="fill: var(--color1, #fff)" d="M29.714 14.857h2.286c-0.004-3.939-1.571-7.715-4.356-10.501s-6.562-4.352-10.501-4.357v2.286c3.333 0.004 6.528 1.33 8.885 3.686s3.683 5.552 3.686 8.885z"></path>
</symbol>

<symbol id="icon-1" viewBox="0 0 147 32">
<path fill="#fff" style="fill: var(--color1, #fff)" d="M8.56 31.334c-4.755 0-8.56-4.151-8.56-12.451 0-7.955 3.89-12.278 8.647-12.278 2.248 0 3.891 0.518 5.014 1.383l-0.951 2.162c-0.692-0.519-1.902-1.038-3.805-1.038-3.371 0-5.706 3.286-5.706 9.944 0 5.36 1.816 9.858 5.274 9.858 1.47 0 2.076-0.173 2.508-0.434v-8.732h-3.287v-2.335h6.312v12.539c-1.21 0.864-2.852 1.382-5.447 1.382zM24.729 5.221h-1.47l1.903-4.669c1.037-0.692 2.68-0.779 2.853 0l-3.286 4.669zM20.060 30.988v-24.038h9.685v2.421h-6.658v8.041h5.966v2.335h-5.966v8.819h6.658v2.422l-9.685 0.001zM44.444 30.988l-6.312-11.414h-0.087v11.414h-3.026v-23.001c1.124-0.778 2.94-1.383 5.102-1.383 4.842 0 7.090 2.853 7.090 7.349 0 3.371-2.68 6.053-5.534 6.313l6.226 10.722h-3.458zM40.12 8.679c-0.952 0-1.643 0.26-2.162 0.433v9.771c0.26 0.086 0.433 0.086 0.779 0.086 2.594 0 5.448-1.124 5.448-4.928-0.001-3.459-1.125-5.361-4.065-5.361zM52.918 6.95h3.113v24.038h-3.113v-24.038zM65.368 9.371v8.041h5.967v2.335h-5.967v11.241h-3.113v-24.038h9.685v2.422h-6.572zM83.44 31.334c-5.448 0-7.523-5.62-7.523-12.366 0-6.657 2.076-12.364 7.523-12.364 5.36 0 7.436 5.706 7.436 12.364 0 6.746-2.076 12.366-7.436 12.366zM83.44 9.025c-3.459 0-4.41 5.015-4.41 9.858s0.865 9.858 4.41 9.858c3.544 0 4.322-5.016 4.322-9.858s-0.864-9.858-4.322-9.858zM108.515 30.988l-8.388-17.468c-0.517-1.038-1.037-2.334-1.037-2.334h-0.087c0 0 0.087 1.21 0.087 2.248v17.554h-2.509v-24.038h3.114l7.868 16.428c0.52 1.125 1.039 2.336 1.039 2.336v-18.764h2.508v24.038h-2.595zM122.869 31.334c-2.509 0-4.497-0.519-5.535-1.383v-21.964c1.125-0.778 3.114-1.383 5.362-1.383 5.706 0 8.559 4.756 8.559 12.106s-2.595 12.624-8.386 12.624zM122.609 8.939c-0.95 0-1.729 0.173-2.248 0.346v19.195c0.433 0.173 1.297 0.346 2.336 0.346 3.89 0 5.448-3.457 5.448-10.116-0.001-6.399-1.818-9.771-5.536-9.771zM140.767 31.334c-2.334 0-3.803-0.519-4.929-1.383l0.78-2.509c0.692 0.607 1.901 1.21 3.718 1.21 1.988 0 3.544-1.296 3.544-3.457 0-2.249-1.124-3.544-3.718-5.62-2.68-2.076-4.063-4.151-4.063-6.745 0-3.804 2.507-6.226 5.793-6.226 1.988 0 3.456 0.606 4.322 1.383l-0.692 2.162c-0.605-0.519-1.73-1.038-3.285-1.038-1.903 0-3.114 1.21-3.114 3.371 0 2.076 0.951 3.287 3.459 5.275 2.68 2.163 4.495 4.064 4.495 7.091 0.002 3.891-2.593 6.485-6.31 6.485z"></path>
</symbol>

<symbol id="icon-2" viewBox="0 0 145 32">
<path fill="#fff" style="fill: var(--color1, #fff)" d="M15.761 4.944h-6.841v15.116c0 1.841-0.051 2.929-0.152 3.268-0.090 0.339-0.388 0.508-0.897 0.508-0.474 0-0.768-0.164-0.88-0.492-0.101-0.328-0.152-1.366-0.152-3.115v-15.286h-6.839v15.152c0 1.931 0.040 3.223 0.119 3.876 0.081 0.652 0.282 1.284 0.592 1.863 0.327 0.599 0.829 1.079 1.506 1.439s1.529 0.541 2.556 0.541c0.903 0 1.699-0.184 2.387-0.558 0.7-0.383 1.287-0.953 1.761-1.709l-0.119 1.862h6.958v-22.465zM32.182 12.121v-1.303c-0.001-1.128-0.062-1.958-0.186-2.488-0.113-0.531-0.452-1.106-1.016-1.728-0.554-0.62-1.354-1.117-2.404-1.49-1.038-0.383-2.303-0.576-3.792-0.576-1.501 0-2.823 0.231-3.961 0.694-1.129 0.462-1.93 1.123-2.404 1.981-0.474 0.847-0.711 2.168-0.711 3.962 0 1.264 0.221 2.359 0.66 3.284 0.441 0.916 1.665 1.938 3.674 3.066 2.393 1.332 3.718 2.133 3.979 2.403 0.249 0.272 0.373 0.942 0.373 2.014-0.001 0.78-0.097 1.294-0.288 1.541-0.192 0.236-0.531 0.356-1.016 0.356-0.452 0-0.756-0.182-0.914-0.543-0.147-0.36-0.22-1.145-0.22-2.353v-1.422h-6.061v1.084c0 1.873 0.23 3.272 0.694 4.198s1.309 1.658 2.54 2.201c1.241 0.541 2.731 0.812 4.469 0.812 1.569 0 2.905-0.248 4.012-0.745 1.117-0.506 1.913-1.223 2.386-2.149 0.474-0.936 0.711-2.319 0.711-4.147-0.001-1.637-0.311-2.885-0.932-3.743s-1.924-1.772-3.91-2.742c-1.491-0.734-2.477-1.292-2.963-1.676-0.474-0.383-0.762-0.734-0.863-1.050-0.091-0.328-0.136-0.835-0.136-1.524 0-0.508 0.096-0.887 0.288-1.135 0.191-0.26 0.479-0.389 0.863-0.389 0.474 0.001 0.767 0.141 0.88 0.423 0.124 0.272 0.186 0.926 0.186 1.964v1.22h6.061zM50.077 4.944v17.301c0 2.337-0.057 3.849-0.17 4.537-0.101 0.678-0.48 1.395-1.134 2.151-0.655 0.766-1.569 1.347-2.744 1.744-1.162 0.406-2.629 0.61-4.401 0.61-2.179 0-3.928-0.374-5.248-1.118-1.321-0.734-2.003-2.184-2.049-4.35h6.636c0 0.993 0.361 1.49 1.083 1.49 0.519 0 0.863-0.152 1.033-0.458 0.169-0.304 0.254-0.943 0.254-1.913v-1.694c-0.546 0.505-1.176 0.912-1.862 1.202-0.643 0.271-1.334 0.41-2.032 0.408-1.23 0-2.246-0.25-3.048-0.745-0.79-0.498-1.332-1.147-1.625-1.947-0.294-0.814-0.44-1.965-0.44-3.453v-8.161c0-2.133 0.383-3.667 1.151-4.604 0.767-0.936 1.935-1.405 3.505-1.405 0.858 0 1.636 0.176 2.337 0.525 0.711 0.35 1.342 0.875 1.896 1.575l0.491-1.693h6.367zM43.22 10.903c0-1.026-0.062-1.681-0.186-1.964-0.113-0.282-0.373-0.422-0.779-0.423-0.395 0-0.677 0.164-0.847 0.492-0.158 0.316-0.237 0.947-0.237 1.896v7.549c0 1.004 0.061 1.66 0.186 1.965 0.124 0.294 0.383 0.44 0.779 0.44 0.451 0 0.744-0.182 0.881-0.541 0.135-0.362 0.203-1.18 0.203-2.457v-6.956zM58.625 13.645h-6.417v-1.506c0-1.738 0.197-3.075 0.593-4.012 0.406-0.948 1.213-1.783 2.421-2.505 1.207-0.722 2.776-1.083 4.707-1.083 2.314 0 4.058 0.412 5.231 1.236 1.172 0.813 1.879 1.818 2.115 3.014 0.238 1.184 0.356 3.634 0.356 7.347v11.275h-6.654v-1.997c-0.418 0.8-0.959 1.404-1.624 1.81-0.655 0.394-1.439 0.592-2.353 0.592-1.176 0.006-2.326-0.342-3.302-0.998-0.993-0.676-1.49-2.149-1.49-4.419v-1.845c0-1.681 0.265-2.827 0.796-3.437 0.53-0.608 1.845-1.321 3.945-2.133 2.246-0.88 3.449-1.472 3.607-1.777 0.156-0.304 0.236-0.925 0.236-1.863 0-1.174-0.092-1.936-0.27-2.286-0.17-0.361-0.458-0.541-0.863-0.541-0.463 0-0.751 0.152-0.863 0.458-0.113 0.294-0.169 1.066-0.169 2.319v2.351h-0.001zM60.793 16.725c-1.096 0.802-1.733 1.473-1.913 2.014-0.17 0.544-0.254 1.321-0.254 2.337 0 1.164 0.073 1.913 0.221 2.253 0.158 0.34 0.462 0.508 0.914 0.508 0.428 0 0.705-0.132 0.829-0.39 0.136-0.27 0.204-0.97 0.204-2.1v-4.622h-0.001zM76.942 4.944h-6.957v22.464h6.839v-15.186c0-1.692 0.062-2.73 0.186-3.114 0.124-0.394 0.429-0.592 0.915-0.592 0.46 0 0.745 0.17 0.846 0.508s0.152 1.281 0.152 2.826v15.559h6.839v-15.744c0-1.964-0.106-3.364-0.322-4.199-0.214-0.846-0.695-1.545-1.439-2.099s-1.705-0.83-2.877-0.83c-0.938 0-1.767 0.209-2.489 0.626-0.712 0.407-1.316 1.021-1.812 1.846l0.118-2.065zM103.656 4.944v17.301c0 2.337-0.055 3.849-0.168 4.537-0.102 0.678-0.48 1.395-1.135 2.151-0.654 0.766-1.568 1.347-2.742 1.744-1.162 0.406-2.63 0.61-4.402 0.61-2.178 0-3.927-0.374-5.248-1.118-1.321-0.734-2.003-2.184-2.049-4.35h6.637c0 0.993 0.36 1.49 1.082 1.49 0.52 0 0.863-0.152 1.033-0.458s0.254-0.943 0.254-1.913v-1.694c-0.546 0.506-1.176 0.912-1.862 1.202-0.643 0.271-1.334 0.41-2.031 0.408-1.231 0-2.247-0.25-3.047-0.745-0.791-0.498-1.332-1.147-1.625-1.947-0.294-0.814-0.44-1.965-0.44-3.453v-8.161c0-2.133 0.385-3.667 1.151-4.604 0.768-0.936 1.936-1.405 3.504-1.405 0.858 0 1.637 0.176 2.337 0.525 0.712 0.35 1.343 0.875 1.896 1.575l0.491-1.693h6.364zM96.8 10.903c0-1.026-0.061-1.681-0.184-1.964-0.114-0.282-0.374-0.422-0.78-0.423-0.394 0-0.676 0.164-0.846 0.492-0.158 0.316-0.238 0.947-0.238 1.896v7.549c0 1.004 0.062 1.66 0.186 1.965 0.124 0.294 0.383 0.44 0.78 0.44 0.452 0 0.743-0.182 0.88-0.541 0.136-0.362 0.202-1.18 0.202-2.457v-6.956zM110.649 21.821h-5.164v5.587h5.164v-5.587zM127.611 13.425c0-2.11-0.207-3.742-0.624-4.894-0.42-1.151-1.26-2.104-2.523-2.861-1.265-0.756-2.788-1.135-4.572-1.135-1.793 0-3.317 0.383-4.571 1.151-1.253 0.756-2.071 1.62-2.455 2.589-0.383 0.972-0.573 2.41-0.573 4.317v6.383c0 2.189 0.228 3.881 0.693 5.078 0.472 1.185 1.273 2.111 2.403 2.777 1.128 0.654 2.658 0.982 4.589 0.982 1.511 0 2.779-0.237 3.809-0.711 1.008-0.47 1.869-1.208 2.486-2.133 0.645-0.949 1.022-1.867 1.136-2.759 0.123-0.902 0.19-2.252 0.202-4.047h-6.094v2.675c0 1.163-0.084 1.953-0.254 2.371-0.158 0.418-0.468 0.627-0.932 0.627-0.394 0-0.693-0.198-0.898-0.594-0.202-0.406-0.303-1.010-0.303-1.81v-10.597c0-0.982 0.068-1.614 0.204-1.897s0.4-0.423 0.794-0.423c0.396 0.001 0.667 0.164 0.814 0.492 0.147 0.317 0.221 0.926 0.221 1.828v2.59h6.448zM136.484 0h-6.842v27.409h6.841v-16.032c0-1.14 0.073-1.902 0.219-2.286s0.429-0.576 0.846-0.576c0.452 0 0.74 0.186 0.864 0.559 0.138 0.373 0.204 1.213 0.204 2.522v15.811h6.839v-15.49c0-2.11-0.096-3.559-0.288-4.35-0.18-0.801-0.693-1.506-1.539-2.116-0.837-0.61-1.852-0.914-3.048-0.914-0.752-0.005-1.499 0.133-2.2 0.407-0.702 0.286-1.345 0.699-1.896 1.219v-6.162z"></path>
</symbol>

<symbol id="icon-3" viewBox="0 0 250 32">
<path fill="#fff" style="fill: var(--color1, #fff)" d="M57.13 22.749c0.057 2.188 0.421 2.918 0.984 3.114 0.476 0.169 1.010 0.196 1.459 0.196 0.308 0 0.476 0.058 0.476 0.227 0 0.224-0.252 0.282-0.647 0.282-1.823 0-2.946-0.086-3.479-0.086-0.251 0-1.57 0.086-3.030 0.086-0.364 0-0.615-0.031-0.615-0.282 0-0.169 0.167-0.227 0.449-0.227 0.364 0 0.869-0.027 1.262-0.14 0.73-0.224 0.842-1.039 0.871-3.479l0.251-16.604c0-0.56 0.085-0.954 0.366-0.954 0.309 0 0.563 0.366 1.038 0.872 0.337 0.364 4.601 4.936 8.697 9.002 1.907 1.908 5.694 5.949 6.171 6.397h0.14l-0.281-12.595c-0.028-1.711-0.282-2.246-0.956-2.525-0.421-0.169-1.093-0.169-1.487-0.169-0.336 0-0.447-0.084-0.447-0.251 0-0.225 0.308-0.254 0.729-0.254 1.459 0 2.806 0.084 3.396 0.084 0.309 0 1.373-0.084 2.749-0.084 0.364 0 0.644 0.028 0.644 0.254 0 0.167-0.169 0.251-0.505 0.251-0.281 0-0.506 0-0.842 0.085-0.786 0.225-1.010 0.814-1.038 2.383l-0.309 17.701c0 0.619-0.112 0.871-0.364 0.871-0.308 0-0.645-0.309-0.954-0.617-1.767-1.684-5.357-5.357-8.275-8.245-3.058-3.031-6.172-6.538-6.677-7.072h-0.084l0.308 11.78zM84.669 15.961c0-4.798 3.17-10.997 11.586-10.997 6.985 0 11.332 4.067 11.332 10.491 0 6.427-4.488 11.5-11.613 11.5-8.049 0.001-11.305-6.028-11.305-10.994zM103.66 16.494c0-6.281-3.618-10.182-8.219-10.182-3.224 0-6.901 1.795-6.901 8.78 0 5.836 3.227 10.463 8.612 10.463 1.964 0 6.508-0.954 6.508-9.060zM116.751 8.105c-0.645-1.541-1.123-1.85-2.131-2.131-0.42-0.113-0.869-0.113-1.093-0.113-0.254 0-0.337-0.084-0.337-0.251 0-0.225 0.309-0.254 0.73-0.254 1.487 0 3.085 0.084 4.068 0.084 0.701 0 2.047-0.084 3.449-0.084 0.337 0 0.646 0.055 0.646 0.254 0 0.196-0.168 0.251-0.421 0.251-0.449 0-0.869 0.028-1.093 0.198-0.197 0.139-0.281 0.336-0.281 0.588 0 0.366 0.251 1.15 0.646 2.159l4.824 12.735h0.113c1.208-3.084 4.853-12.116 5.525-13.969 0.141-0.364 0.254-0.786 0.254-1.038 0-0.224-0.113-0.449-0.364-0.533-0.338-0.112-0.759-0.14-1.122-0.14-0.251 0-0.475-0.028-0.475-0.224 0-0.225 0.25-0.281 0.782-0.281 1.402 0 2.581 0.084 2.948 0.084 0.475 0 1.796-0.084 2.636-0.084 0.365 0 0.591 0.055 0.591 0.254 0 0.196-0.172 0.251-0.45 0.251-0.28 0-0.868 0-1.377 0.337-0.364 0.252-0.782 0.73-1.542 2.527-1.093 2.633-1.851 4.149-3.364 7.6l-3.733 8.554c-0.73 1.629-0.9 2.077-1.289 2.077-0.364 0-0.535-0.39-1.067-1.711l-7.072-17.141zM146.369 19.243c-0.14 0-0.197 0.058-0.254 0.224l-1.516 4.010c-0.28 0.703-0.42 1.377-0.42 1.711 0 0.506 0.254 0.871 1.12 0.871h0.421c0.338 0 0.422 0.058 0.422 0.227 0 0.224-0.169 0.282-0.48 0.282-0.896 0-2.104-0.086-2.97-0.086-0.311 0-1.85 0.086-3.308 0.086-0.366 0-0.535-0.058-0.535-0.282 0-0.169 0.11-0.227 0.338-0.227l0.87-0.055c1.289-0.169 1.822-1.123 2.381-2.525l7.044-17.614c0.338-0.813 0.506-1.123 0.786-1.123 0.254 0 0.421 0.254 0.702 0.899 0.676 1.543 5.164 12.989 6.956 17.252 1.065 2.525 1.881 2.918 2.468 3.058 0.421 0.084 0.844 0.111 1.178 0.111 0.228 0 0.366 0.028 0.366 0.227 0 0.224-0.254 0.282-1.289 0.282-1.012 0-3.060 0-5.304-0.058-0.506-0.028-0.844-0.028-0.844-0.224 0-0.169 0.114-0.227 0.396-0.254 0.197-0.055 0.392-0.309 0.251-0.646l-2.244-5.944c-0.056-0.14-0.137-0.197-0.28-0.197l-6.255-0.003zM152.091 17.841c0.141 0 0.169-0.084 0.141-0.169l-2.526-6.931c-0.027-0.111-0.055-0.251-0.14-0.251s-0.141 0.14-0.169 0.251l-2.58 6.904c-0.028 0.111 0 0.196 0.114 0.196h5.16zM170.492 13.491c0-4.262 0-5.048-0.058-5.947-0.056-0.953-0.28-1.402-1.205-1.598-0.224-0.057-0.703-0.085-1.095-0.085-0.309 0-0.478-0.055-0.478-0.251 0-0.198 0.196-0.254 0.616-0.254 1.487 0 3.253 0.084 3.841 0.084 0.954 0 3.087-0.084 3.957-0.084 1.767 0 3.646 0.169 5.161 1.207 0.786 0.532 1.908 1.964 1.908 3.843 0 2.074-0.87 3.983-3.704 6.284 2.495 3.139 4.431 5.639 6.087 7.376 1.572 1.626 2.721 1.825 3.142 1.908 0.309 0.055 0.562 0.082 0.786 0.082s0.338 0.084 0.338 0.227c0 0.224-0.197 0.282-0.535 0.282h-2.665c-1.568 0-2.273-0.142-3.001-0.534-1.205-0.647-2.272-1.964-3.844-4.126-1.122-1.543-2.412-3.448-2.779-3.867-0.14-0.169-0.306-0.197-0.504-0.197l-2.441-0.055c-0.141 0-0.226 0.055-0.226 0.224v0.393c0 2.61 0 4.826 0.142 6.002 0.083 0.815 0.254 1.429 1.094 1.543 0.42 0.055 1.039 0.111 1.375 0.111 0.224 0 0.339 0.084 0.339 0.227 0 0.196-0.199 0.282-0.564 0.282-1.626 0-3.7-0.086-4.12-0.086-0.535 0-2.302 0.086-3.424 0.086-0.365 0-0.562-0.086-0.562-0.282 0-0.142 0.114-0.227 0.45-0.227 0.42 0 0.755-0.055 1.010-0.111 0.559-0.113 0.699-0.727 0.815-1.543 0.14-1.175 0.14-3.393 0.14-5.976v-4.937h0.002zM173.797 15.708c0 0.309 0.062 0.421 0.256 0.506 0.59 0.196 1.432 0.279 2.13 0.279 1.122 0 1.487-0.111 1.993-0.478 0.84-0.617 1.656-1.908 1.656-4.207 0-3.983-2.638-5.134-4.292-5.134-0.704 0-1.209 0.030-1.487 0.113-0.196 0.057-0.256 0.169-0.256 0.393v8.527zM199.781 6.929l-4.178 0.111c-1.627 0.055-2.302 0.197-2.721 0.814-0.282 0.422-0.422 0.759-0.478 0.983-0.058 0.224-0.141 0.337-0.309 0.337-0.197 0-0.254-0.142-0.254-0.448 0-0.448 0.533-3.003 0.588-3.227 0.084-0.366 0.169-0.534 0.338-0.534 0.224 0 0.506 0.281 1.208 0.337 0.933 0.092 1.868 0.139 2.805 0.14h11.108c1.792 0 2.466-0.281 2.694-0.281 0.196 0 0.222 0.167 0.222 0.59 0 0.59-0.084 2.527-0.084 3.254-0.027 0.279-0.082 0.448-0.251 0.448-0.224 0-0.28-0.138-0.309-0.561l-0.028-0.309c-0.055-0.729-0.814-1.514-3.31-1.57l-3.534-0.084v11.499c0 2.583 0 4.801 0.14 6.002 0.084 0.788 0.255 1.402 1.096 1.516 0.392 0.055 1.009 0.111 1.429 0.111 0.308 0 0.45 0.084 0.45 0.227 0 0.196-0.226 0.282-0.535 0.282-1.85 0-3.617-0.086-4.399-0.086-0.648 0-2.418 0.086-3.538 0.086-0.366 0-0.559-0.086-0.559-0.282 0-0.142 0.111-0.227 0.448-0.227 0.421 0 0.755-0.055 1.007-0.111 0.564-0.113 0.73-0.727 0.815-1.543 0.14-1.176 0.14-3.393 0.14-5.976v-11.498zM221.576 13.491c0-4.262 0-5.048-0.057-5.947-0.056-0.953-0.335-1.429-0.955-1.57-0.329-0.081-0.67-0.119-1.009-0.113-0.277 0-0.448-0.055-0.448-0.279 0-0.169 0.226-0.225 0.674-0.225 1.064 0 2.831 0.084 3.648 0.084 0.699 0 2.354-0.084 3.419-0.084 0.365 0 0.59 0.055 0.59 0.225 0 0.224-0.168 0.279-0.448 0.279-0.282 0-0.506 0.028-0.843 0.085-0.757 0.139-0.981 0.618-1.037 1.598-0.058 0.899-0.058 1.684-0.058 5.947v4.937c0 2.724 0 4.937 0.114 6.142 0.083 0.759 0.279 1.263 1.122 1.377 0.392 0.055 1.010 0.111 1.429 0.111 0.311 0 0.448 0.084 0.448 0.227 0 0.196-0.224 0.282-0.533 0.282-1.85 0-3.62-0.086-4.376-0.086-0.646 0-2.412 0.086-3.534 0.086-0.366 0-0.559-0.086-0.559-0.282 0-0.142 0.114-0.227 0.449-0.227 0.42 0 0.756-0.055 1.009-0.111 0.562-0.113 0.728-0.591 0.813-1.402 0.141-1.178 0.141-3.393 0.141-6.115v-4.938zM238.318 26.226c-0.448-0.196-0.533-0.335-0.533-0.954 0-1.543 0.114-3.227 0.141-3.673 0.027-0.421 0.113-0.733 0.337-0.733 0.254 0 0.28 0.255 0.28 0.479 0 0.364 0.114 0.954 0.254 1.432 0.617 2.074 2.273 2.834 4.013 2.834 2.522 0 3.758-1.714 3.758-3.2 0-1.374-0.423-2.691-2.75-4.486l-1.291-1.010c-3.084-2.415-4.152-4.378-4.152-6.649 0-3.087 2.583-5.303 6.482-5.303 1.823 0 3.001 0.281 3.729 0.478 0.254 0.057 0.392 0.14 0.392 0.336 0 0.364-0.108 1.178-0.108 3.366 0 0.62-0.087 0.841-0.311 0.841-0.197 0-0.282-0.166-0.282-0.506 0-0.251-0.14-1.12-0.728-1.85-0.421-0.533-1.236-1.373-3.055-1.373-2.078 0-3.34 1.207-3.34 2.888 0 1.292 0.646 2.273 2.972 4.038l0.786 0.591c3.364 2.61 4.6 4.489 4.6 7.155 0 1.626-0.616 3.559-2.636 4.879-1.404 0.896-2.974 1.15-4.461 1.15-1.627-0.001-2.891-0.2-4.097-0.732z"></path>
<path fill="#fff" style="fill: var(--color1, #fff)" d="M13.282 31.878c-12.078-0.923-15.75-7.868-11.704-15.688 2.18-4.21 5.508-8.74 1.542-12.925-0.108-0.138-0.019-0.226 0.148-0.151 9.035 3.602 4.334 10.875 2.792 13.885-3.040 5.939-1.101 13.149 7.224 14.7 0.182 0.041 0.169 0.196-0.001 0.18z"></path>
<path fill="#fff" style="fill: var(--color1, #fff)" d="M14.894 25.254l2.045-25.246-4.789-0.007 2.575 25.254c0.013 0.167 0.157 0.16 0.169 0z"></path>
<path fill="#fff" style="fill: var(--color1, #fff)" d="M20.362 12.545c2.982 2.347 7.847 15.391-4.028 19.151-0.193 0.049-0.176 0.197 0.003 0.176 18.889-2.359 12.397-15.912 4.183-19.486-0.218-0.107-0.322 0.031-0.158 0.159z"></path>
</symbol>

<symbol id="icon-4" viewBox="0 0 246 32">
<path fill="#fff" style="fill: var(--color1, #fff)" d="M109.974 11.499h-1.078v19.766h1.617v-15.633h0.361l14.016 15.633h0.717v-19.766h-1.617v14.913h-0.178l-13.839-14.913zM104.404 15.811c-0.18-2.875-2.336-4.492-6.469-4.312h-6.11v19.766l1.257-0.18 1.257 0.18v-9.702h1.078l7.547 9.702 1.616-0.18 1.617 0.18-0.359-0.72-7.546-9.162c3.955-0.72 5.933-2.517 6.112-5.572zM94.342 20.485v-7.907h4.132c2.157 0.358 3.234 1.618 3.234 3.595 0 2.335-1.257 3.772-3.594 4.132l-3.773 0.18zM88.77 21.023c-0.18-3.234-1.259-5.93-3.414-7.547-2.168-1.652-4.823-2.537-7.548-2.517-3.055 0-5.571 1.078-7.726 2.875-1.977 1.977-3.055 4.494-3.055 7.549s1.078 5.569 3.055 7.367c1.977 1.977 4.492 2.875 7.548 2.875 3.234 0 5.929-0.899 8.085-2.875 1.977-1.976 2.875-4.673 3.055-7.727zM84.098 14.913c1.078 1.44 1.796 3.595 1.796 6.289 0.18 1.977-0.359 3.954-1.617 5.93-1.617 2.335-3.773 3.595-6.47 3.595-2.335 0-4.131-0.72-5.571-2.338-1.437-1.615-2.336-3.952-2.336-6.647 0-2.875 0.718-5.212 2.157-7.009 1.437-1.798 3.414-2.697 5.93-2.697 2.697 0 4.673 0.899 6.111 2.876zM57.324 11.499h-5.571v19.586h4.133c2.696 0.18 4.852-0.18 6.11-1.078 1.798-1.257 2.516-2.875 2.516-4.852 0-2.694-1.618-4.312-5.212-4.492 3.055-0.899 4.493-2.515 4.493-5.211s-1.977-4.133-6.469-3.953zM54.269 12.577h2.157c3.234 0 4.851 1.257 4.851 3.595 0 1.437-0.718 2.694-2.155 3.414l-4.852 0.538v-7.546 8.624h1.617c3.954 0 5.929 1.44 5.929 4.494 0 1.257-0.539 2.335-1.437 3.055-0.899 0.899-1.977 1.257-3.414 1.257h-2.696v-17.431h0.001zM44.385 31.627l-7.727-20.846-36.657-10.781 14.017 31.985c7.189-0.898 17.251-1.078 30.368-0.358z"></path>
<path fill="#fff" style="fill: var(--color1, #fff)" d="M226.237 23.719h-7.726v7.368h7.726v-7.368z"></path>
<path fill="#fff" style="fill: var(--color1, #fff)" d="M209.346 31.087l1.257 0.18-2.335-19.766h-0.54l-8.267 15.096c-2.335-3.595-5.032-8.627-8.266-15.096h-0.719l-2.872 19.766 1.077-0.18 1.078 0.18c0-1.977 0.358-7.009 1.257-14.913l7.546 14.734h0.361c1.437-3.414 3.955-8.445 7.546-14.734l1.44 14.913 1.437-0.18zM185.806 31.087v-1.619l-7.908 0.54v-18.508h-2.694v19.587h10.602zM172.328 21.023c0-3.234-1.257-5.93-3.414-7.546-1.976-1.618-4.494-2.517-7.549-2.517s-5.569 1.078-7.546 2.875c-2.156 1.977-3.234 4.494-3.234 7.549s1.078 5.569 3.054 7.367c1.795 1.977 4.492 2.875 7.726 2.875 3.054 0 5.93-0.899 7.907-2.875s3.055-4.673 3.055-7.727zM167.656 14.913c1.26 1.44 1.798 3.595 1.798 6.289 0.18 1.977-0.537 3.954-1.618 5.93-1.615 2.335-3.773 3.595-6.47 3.595-2.156 0-4.132-0.72-5.569-2.338-1.618-1.615-2.335-3.952-2.335-6.647 0-2.875 0.717-5.211 2.156-7.009 1.438-1.798 3.414-2.697 6.11-2.697 2.514 0 4.491 0.899 5.928 2.876zM147.531 11.499h-2.518v8.266h-12.216v-8.266h-2.517v19.766h2.517v-9.882h12.216v9.882h2.518v-19.766z"></path>
<path fill="#fff" style="fill: var(--color1, #fff)" d="M218.51 19.046h7.726v-7.367h-7.726v7.367zM245.286 31.265v-7.547h-14.018v7.547h14.018zM245.106 19.046v-7.367h-13.838v7.367h13.838z"></path>
</symbol>

<symbol id="icon-5" viewBox="0 0 205 32">
<path fill="#fff" style="fill: var(--color1, #fff)" d="M0 30.251v-5.648h16.437l0.102-6.859h-13.412c0 0-2.824-1.107-3.127-3.223l0.1-11.095c0 0 0.805-3.227 3.429-3.227l22.791-0.097 0.503 6.149-16.337 0.204v6.251h12.605c0 0 3.632 0.502 3.632 3.023v10.993c0 0-0.908 3.53-3.731 3.53h-22.994zM53.272 0.021h-19.464c-3.224 0-3.834 3.53-3.834 3.53l0.202 22.895c0 2.721 3.229 3.729 3.229 3.729h19.768c2.824 0 3.629-3.223 3.629-3.223v-23.197c0-2.623-3.53-3.734-3.53-3.734zM40.214 24.578v-18.959h6.249l0.1 18.957-6.349 0.002zM87.232 29.141c-0.909-0.102-1.212-0.906-1.212-0.906l-0.1-9.677c-0.1-2.123-2.724-2.623-2.724-2.623v-1.11c2.122-0.102 2.824-3.329 2.824-3.329l-0.1-7.866c-0.1-2.824-3.023-3.525-3.023-3.525h-23.095l0.1 29.749h9.782v-11.901h6.456l0.103 11.8 11.088 0.1-0.099-0.712zM76.34 11.396c0 0 0 1.008-0.909 1.008l-5.848-0.102-0.102-6.454h5.65c0 0 1.209 0.405 1.209 1.515v4.033zM99.432 29.749h-9.984v-29.749h9.984v29.749zM125.449 0.102l-19.26 0.199c-2.824 0.103-3.226 2.926-3.226 2.926v26.522l9.782 0.1-0.202-11.497h6.354v11.497l10.286-0.1v-25.31c0.101-3.431-3.735-4.337-3.735-4.337zM119.503 13.712h-6.859l0.1-6.454c0 0-0.303-1.918 1.007-1.918l4.438-0.097c0 0 1.313 0.201 1.313 1.413v7.057h0.002zM185.055 0.102l-19.26 0.199c-2.828 0.103-3.232 2.926-3.232 2.926v26.522l9.786 0.1-0.206-11.497h6.36v11.497l10.284-0.1v-25.31c0.096-3.431-3.731-4.337-3.731-4.337zM179.101 13.712h-6.856l0.1-6.454c0 0-0.305-1.918 1.007-1.918l4.438-0.097c0 0 1.309 0.201 1.309 1.413v7.057h0.001zM132.611 29.849l-0.1-29.748h10.893l9.074 14.317 0.808-0.1-0.202-14.319h5.55l0.201 29.849-10.691-0.1-9.178-14.224-1.112-0.097-0.097 14.422h-5.146zM191.79 31.255v-5.682h1.716l1.032 3.877 1.021-3.877h1.72v5.682h-1.062v-4.473l-1.132 4.473h-1.103l-1.125-4.473v4.473h-1.068zM198.424 31.255v-5.682h2.414c0.609 0 1.048 0.050 1.325 0.154 0.274 0.1 0.497 0.284 0.663 0.543 0.163 0.262 0.247 0.56 0.247 0.896 0 0.426-0.125 0.78-0.378 1.057-0.25 0.277-0.623 0.453-1.123 0.525 0.25 0.146 0.456 0.304 0.614 0.478 0.16 0.172 0.378 0.479 0.652 0.922l0.695 1.109h-1.372l-0.828-1.236c-0.294-0.441-0.497-0.721-0.605-0.835-0.095-0.106-0.214-0.187-0.346-0.237-0.188-0.050-0.383-0.071-0.576-0.062h-0.232v2.373h-1.151v-0.002zM199.572 27.974h0.846c0.549 0 0.895-0.023 1.034-0.068 0.137-0.046 0.244-0.126 0.321-0.24 0.078-0.114 0.115-0.256 0.115-0.426 0.009-0.169-0.046-0.334-0.155-0.464-0.111-0.124-0.265-0.203-0.43-0.222-0.279-0.018-0.558-0.025-0.838-0.020h-0.893v1.44z"></path>
</symbol>

</defs>
</svg>
